<svg width="1340" height="600" viewBox="0 0 1340 600" xmlns="http://www.w3.org/2000/svg">
  <defs>
    <linearGradient id="healingGradient" x1="0%" y1="0%" x2="100%" y2="100%">
      <stop offset="0%" style="stop-color:#059669;stop-opacity:1" />
      <stop offset="50%" style="stop-color:#10B981;stop-opacity:1" />
      <stop offset="100%" style="stop-color:#0D9488;stop-opacity:1" />
    </linearGradient>
  </defs>
  
  <!-- Background -->
  <rect width="1340" height="600" fill="url(#healingGradient)"/>
  
  <!-- Healing Circles -->
  <g opacity="0.5">
    <circle cx="670" cy="300" r="200" fill="none" stroke="white" stroke-width="2"/>
    <circle cx="670" cy="300" r="150" fill="none" stroke="white" stroke-width="1" opacity="0.7"/>
    <circle cx="670" cy="300" r="100" fill="none" stroke="white" stroke-width="1" opacity="0.5"/>
    <circle cx="670" cy="300" r="50" fill="none" stroke="white" stroke-width="1" opacity="0.3"/>
  </g>
  
  <!-- Healing Symbols -->
  <g opacity="0.8">
    <!-- Heart Symbol (Center) -->
    <path d="M670 280 Q670 250 700 250 Q720 250 720 280 Q720 320 670 350 Q620 320 620 280 Q620 250 640 250 Q670 250 670 280" fill="white"/>
    
    <!-- Yin Yang Symbol -->
    <circle cx="200" cy="200" r="60" fill="none" stroke="white" stroke-width="3"/>
    <circle cx="200" cy="170" r="15" fill="white"/>
    <circle cx="200" cy="230" r="15" fill="none" stroke="white" stroke-width="3"/>
    <path d="M200 140 Q200 200 200 260" stroke="white" stroke-width="3" fill="none"/>
    
    <!-- Chakra Symbols -->
    <circle cx="1140" cy="200" r="40" fill="none" stroke="white" stroke-width="2"/>
    <circle cx="1140" cy="200" r="30" fill="none" stroke="white" stroke-width="1"/>
    <circle cx="1140" cy="200" r="20" fill="none" stroke="white" stroke-width="1"/>
    <circle cx="1140" cy="200" r="10" fill="white"/>
    
    <!-- Lotus Flower -->
    <g transform="translate(200, 400)">
      <circle cx="0" cy="0" r="8" fill="white"/>
      <circle cx="15" cy="-10" r="6" fill="white"/>
      <circle cx="15" cy="10" r="6" fill="white"/>
      <circle cx="0" cy="20" r="6" fill="white"/>
      <circle cx="-15" cy="10" r="6" fill="white"/>
      <circle cx="-15" cy="-10" r="6" fill="white"/>
    </g>
    
    <!-- Tree of Life -->
    <path d="M1140 400 L1140 500" stroke="white" stroke-width="3"/>
    <path d="M1140 450 L1100 420" stroke="white" stroke-width="2"/>
    <path d="M1140 450 L1180 420" stroke="white" stroke-width="2"/>
    <path d="M1140 480 L1080 450" stroke="white" stroke-width="2"/>
    <path d="M1140 480 L1200 450" stroke="white" stroke-width="2"/>
    <circle cx="1140" cy="400" r="15" fill="white"/>
  </g>
  
  <!-- Healing Elements -->
  <g opacity="0.7">
    <!-- Herbs/Plants -->
    <path d="M300 300 Q320 280 340 300 Q320 320 300 300" fill="white"/>
    <path d="M320 280 Q340 260 360 280 Q340 300 320 280" fill="white"/>
    <path d="M340 260 Q360 240 380 260 Q360 280 340 260" fill="white"/>
    
    <!-- Water Droplets -->
    <path d="M1000 300 Q1010 290 1020 300 Q1010 310 1000 300" fill="white"/>
    <path d="M1020 280 Q1030 270 1040 280 Q1030 290 1020 280" fill="white"/>
    <path d="M1040 260 Q1050 250 1060 260 Q1050 270 1040 260" fill="white"/>
    
    <!-- Crystals -->
    <polygon points="800,200 820,180 840,200 820,220" fill="white"/>
    <polygon points="850,220 870,200 890,220 870,240" fill="white"/>
    <polygon points="900,240 920,220 940,240 920,260" fill="white"/>
  </g>
  
  <!-- Wellness Elements -->
  <g opacity="0.6">
    <!-- Meditation Figure -->
    <circle cx="500" cy="150" r="20" fill="white"/>
    <rect x="480" y="170" width="40" height="50" fill="white" rx="20"/>
    <path d="M480 200 Q460 180 480 160" fill="none" stroke="white" stroke-width="2"/>
    <path d="M520 200 Q540 180 520 160" fill="none" stroke="white" stroke-width="2"/>
    
    <!-- Yoga Figure -->
    <circle cx="900" cy="350" r="18" fill="white"/>
    <path d="M900 368 Q920 350 940 368" fill="none" stroke="white" stroke-width="2"/>
    <path d="M940 368 Q960 350 980 368" fill="none" stroke="white" stroke-width="2"/>
  </g>
  
  <!-- Energy Flow Lines -->
  <g opacity="0.4">
    <path d="M100 300 Q300 250 500 200 Q700 250 900 200 Q1100 250 1240 300" stroke="white" stroke-width="1" fill="none"/>
    <path d="M100 350 Q300 300 500 250 Q700 300 900 250 Q1100 300 1240 350" stroke="white" stroke-width="1" fill="none"/>
  </g>
  
  <!-- Floating Healing Particles -->
  <g opacity="0.6">
    <circle cx="150" cy="100" r="3" fill="white"/>
    <circle cx="350" cy="80" r="2" fill="white"/>
    <circle cx="550" cy="120" r="3" fill="white"/>
    <circle cx="750" cy="90" r="2" fill="white"/>
    <circle cx="950" cy="110" r="3" fill="white"/>
    <circle cx="1150" cy="80" r="2" fill="white"/>
    <circle cx="200" cy="500" r="3" fill="white"/>
    <circle cx="400" cy="480" r="2" fill="white"/>
    <circle cx="600" cy="520" r="3" fill="white"/>
    <circle cx="800" cy="490" r="2" fill="white"/>
    <circle cx="1000" cy="510" r="3" fill="white"/>
    <circle cx="1200" cy="480" r="2" fill="white"/>
  </g>
  
  <!-- Text Overlay -->
  <text x="670" y="580" text-anchor="middle" fill="white" font-family="Arial, sans-serif" font-size="24" font-weight="bold" opacity="0.9">
    Healing Practices - Wellness & Balance
  </text>
</svg> 