<svg width="768" height="500" viewBox="0 0 768 500" xmlns="http://www.w3.org/2000/svg">
  <defs>
    <linearGradient id="healingGradientMobile" x1="0%" y1="0%" x2="100%" y2="100%">
      <stop offset="0%" style="stop-color:#059669;stop-opacity:1" />
      <stop offset="50%" style="stop-color:#10B981;stop-opacity:1" />
      <stop offset="100%" style="stop-color:#0D9488;stop-opacity:1" />
    </linearGradient>
  </defs>
  
  <!-- Background -->
  <rect width="768" height="500" fill="url(#healingGradientMobile)"/>
  
  <!-- Healing Circles (Simplified) -->
  <g opacity="0.5">
    <circle cx="384" cy="250" r="120" fill="none" stroke="white" stroke-width="2"/>
    <circle cx="384" cy="250" r="90" fill="none" stroke="white" stroke-width="1" opacity="0.7"/>
    <circle cx="384" cy="250" r="60" fill="none" stroke="white" stroke-width="1" opacity="0.5"/>
  </g>
  
  <!-- Healing Symbols (Simplified) -->
  <g opacity="0.8">
    <!-- Heart Symbol (Center) -->
    <path d="M384 230 Q384 200 410 200 Q425 200 425 230 Q425 260 384 280 Q343 260 343 230 Q343 200 360 200 Q384 200 384 230" fill="white"/>
    
    <!-- Yin Yang Symbol -->
    <circle cx="120" cy="150" r="40" fill="none" stroke="white" stroke-width="2"/>
    <circle cx="120" cy="130" r="10" fill="white"/>
    <circle cx="120" cy="170" r="10" fill="none" stroke="white" stroke-width="2"/>
    
    <!-- Chakra Symbol -->
    <circle cx="648" cy="150" r="30" fill="none" stroke="white" stroke-width="2"/>
    <circle cx="648" cy="150" r="20" fill="none" stroke="white" stroke-width="1"/>
    <circle cx="648" cy="150" r="10" fill="white"/>
    
    <!-- Lotus Flower -->
    <g transform="translate(120, 350)">
      <circle cx="0" cy="0" r="6" fill="white"/>
      <circle cx="10" cy="-8" r="4" fill="white"/>
      <circle cx="10" cy="8" r="4" fill="white"/>
      <circle cx="0" cy="16" r="4" fill="white"/>
      <circle cx="-10" cy="8" r="4" fill="white"/>
      <circle cx="-10" cy="-8" r="4" fill="white"/>
    </g>
  </g>
  
  <!-- Healing Elements (Simplified) -->
  <g opacity="0.7">
    <!-- Herbs -->
    <path d="M200 250 Q215 235 230 250 Q215 265 200 250" fill="white"/>
    <path d="M215 235 Q230 220 245 235 Q230 250 215 235" fill="white"/>
    
    <!-- Water Droplets -->
    <path d="M650 250 Q657 242 664 250 Q657 258 650 250" fill="white"/>
    <path d="M664 235 Q671 227 678 235 Q671 243 664 235" fill="white"/>
    
    <!-- Crystal -->
    <polygon points="550,150 565,135 580,150 565,165" fill="white"/>
  </g>
  
  <!-- Wellness Elements (Simplified) -->
  <g opacity="0.6">
    <!-- Meditation Figure -->
    <circle cx="350" cy="120" r="15" fill="white"/>
    <rect x="335" y="135" width="30" height="35" fill="white" rx="15"/>
    
    <!-- Yoga Figure -->
    <circle cx="650" cy="300" r="13" fill="white"/>
    <path d="M650 313 Q665 300 680 313" fill="none" stroke="white" stroke-width="2"/>
  </g>
  
  <!-- Floating Healing Particles -->
  <g opacity="0.6">
    <circle cx="100" cy="80" r="2" fill="white"/>
    <circle cx="250" cy="60" r="2" fill="white"/>
    <circle cx="400" cy="90" r="2" fill="white"/>
    <circle cx="550" cy="70" r="2" fill="white"/>
    <circle cx="700" cy="80" r="2" fill="white"/>
    <circle cx="150" cy="420" r="2" fill="white"/>
    <circle cx="300" cy="400" r="2" fill="white"/>
    <circle cx="450" cy="430" r="2" fill="white"/>
    <circle cx="600" cy="410" r="2" fill="white"/>
  </g>
  
  <!-- Text Overlay -->
  <text x="384" y="480" text-anchor="middle" fill="white" font-family="Arial, sans-serif" font-size="18" font-weight="bold" opacity="0.9">
    Healing Practices
  </text>
</svg> 